<svg width="169" height="138" viewBox="0 0 169 138" fill="none" xmlns="http://www.w3.org/2000/svg">
<path d="M34.5022 136.747C34.1648 136.345 33.8709 136.017 33.6094 135.57" stroke="white" stroke-width="0.7362" stroke-linecap="round" stroke-linejoin="round"/>
<path d="M31.9435 133.244C24.0134 121.083 22.3422 105.161 27.028 91.2188C32.265 75.9546 44.8813 63.3733 60.0411 57.4043C68.3318 54.1539 78.1902 52.8864 85.4977 57.7115C87.3354 58.9364 89.0874 60.7115 89.4501 62.8994C89.9885 66.0845 87.0735 69.2899 83.8816 69.7573C80.6137 70.2691 77.3628 68.3709 75.5223 65.7476C73.6817 63.1243 73.0125 59.7157 72.9846 56.532C72.857 46.9064 77.6171 37.6213 84.5651 30.8563C92.6619 22.9193 103.806 18.0997 115.121 17.58C118.487 17.4106 121.8 17.6725 125.092 18.2468" stroke="white" stroke-width="0.7362" stroke-linecap="round" stroke-linejoin="round" stroke-dasharray="3.36 3.36"/>
<path d="M126.438 18.459C126.917 18.5793 127.395 18.6996 127.873 18.8199" stroke="white" stroke-width="0.7362" stroke-linecap="round" stroke-linejoin="round"/>
<path d="M131.718 24.1711C132.467 24.2327 133.151 23.8329 133.508 23.2239L134.038 22.2137L138.111 22.7306L134.849 31.4395C136.173 31.2646 137.388 30.5538 137.994 29.4992L141.707 23.1271L143.999 23.3863C145.302 23.5237 146.692 23.1109 147.58 22.191C146.97 21.1479 145.752 20.4603 144.373 20.3673L142.125 20.1827L139.917 13.2738C139.535 12.0975 138.534 11.0832 137.295 10.7079L138.497 19.905L134.435 19.5816L134.096 18.4798C133.899 17.7949 133.279 17.2577 132.529 17.1961L131.66 17.1045L132.425 19.4571C131.567 19.5589 130.493 19.9874 130.483 20.4932C130.397 21.0434 131.332 21.5964 132.137 21.9259L130.849 24.0795L131.718 24.1711Z" fill="white"/>
</svg>
