<svg width="74" height="74" viewBox="0 0 74 74" fill="none" xmlns="http://www.w3.org/2000/svg">
<g clip-path="url(#clip0_726_1259)">
<path d="M73.6911 71.5338L62.2828 58.1213L63.2078 44.5546C63.2078 44.2463 63.2078 43.938 63.0537 43.6296L58.5828 36.6921L59.5078 28.6755L71.0703 44.0921C71.5328 44.7088 72.612 44.863 73.2286 44.4005C73.8453 43.938 73.9995 42.8588 73.537 42.2421L59.662 23.7421C59.3537 23.2796 59.0453 23.1255 58.4287 23.1255C57.9662 23.1255 57.3495 23.4338 57.1953 23.7421L45.6328 38.6963L30.3703 20.6588C30.2162 20.5046 29.7537 20.1963 29.2912 20.1963C28.8287 20.1963 28.212 20.3505 27.9037 20.813L0.153684 57.813C-0.308816 58.4296 -0.15465 59.5088 0.462017 59.9713C1.07868 60.4338 2.15785 60.2796 2.62035 59.663L25.8995 28.6755L23.1245 40.0838C22.9703 40.5463 23.1245 41.0088 23.4328 41.4713L31.2953 51.1838L21.737 71.8421C21.4287 72.613 21.737 73.538 22.5078 73.8463C23.2787 74.1546 24.2037 73.8463 24.512 73.0755L34.5328 51.4921C34.8412 51.0296 34.687 50.2588 34.3787 49.7963L26.362 40.0838L30.062 24.8213L71.2245 73.3838C71.8411 74.0005 72.7661 74.1546 73.3828 73.538C74.1536 73.0755 74.1536 72.1505 73.6911 71.5338ZM59.3537 54.7296L47.7912 41.0088L56.2703 30.063L55.4995 36.8463C55.4995 37.1546 55.4995 37.6171 55.6537 37.9255L59.9703 44.863L59.3537 54.7296Z" fill="white"/>
<path d="M41.6244 16.9583H52.416C55.8077 16.9583 58.5827 14.1833 58.5827 10.7917C58.5827 8.47917 57.3494 6.475 55.4994 5.39583C55.0369 2.3125 52.416 0 49.3327 0C47.4827 0 45.7869 0.770834 44.7077 2.15833C43.6285 1.69583 42.7035 1.54167 41.6244 1.54167C37.3077 1.54167 33.916 4.93333 33.916 9.25C33.916 13.5667 37.3077 16.9583 41.6244 16.9583ZM41.6244 4.625C42.5494 4.625 43.4744 4.93333 44.2452 5.39583C45.016 5.85834 46.0952 5.70417 46.5577 4.77917C47.0202 3.7 48.0994 3.08333 49.3327 3.08333C51.0285 3.08333 52.416 4.47083 52.416 6.16667C52.2619 6.9375 52.7244 7.70834 53.4952 7.8625C54.7285 8.325 55.4994 9.55834 55.4994 10.7917C55.4994 12.4875 54.1119 13.875 52.416 13.875H41.6244C39.0035 13.875 36.9994 11.8708 36.9994 9.25C36.9994 6.62917 39.0035 4.625 41.6244 4.625Z" fill="white"/>
</g>
<defs>
<clipPath id="clip0_726_1259">
<rect width="74" height="74" fill="white"/>
</clipPath>
</defs>
</svg>
